<?xml version="1.0" encoding="UTF-8"?><svg xmlns="http://www.w3.org/2000/svg" xmlns:xlink="http://www.w3.org/1999/xlink" version="1.1" x="0px" y="0px" viewBox="0 0 100 125" enable-background="new 0 0 100 100" xml:space="preserve"><path d="M84.522,25.82c-0.05-1.61-1.4-2.92-3.02-2.92h-23.29c-0.15,0-0.27-0.13-0.27-0.27V7.97c0-1.64-1.33-2.97-2.97-2.97h-35.87  c-1.61,0-2.97,1.31-3.01,2.93L13.592,92c-0.03,0.8,0.27,1.55,0.82,2.12c0.55,0.57,1.29,0.88,2.09,0.88l66.99-0.29  c0.8,0,1.54-0.32,2.1-0.89c0.55-0.57,0.84-1.33,0.82-2.12L84.522,25.82z"/></svg>
